HIERARCHY
ROOT Hips
{
	OFFSET 0.000000 0.000000 0.000000
	CHANNELS 6 Xposition Yposition Zposition Zrotation Yrotation Xrotation 
	JOINT LHipJoint
	{
		OFFSET 0.000000 0.000000 0.000000
		CHANNELS 3 Zrotation Yrotation Xrotation
		JOINT LeftUpLeg
		{
			OFFSET 1.363060 -1.794630 0.839290
			CHANNELS 3 Zrotation Yrotation Xrotation
			JOINT LeftLeg
			{
				OFFSET 2.448110 -6.726130 0.000000
				CHANNELS 3 Zrotation Yrotation Xrotation
				JOINT LeftFoot
				{
					OFFSET 2.562200 -7.039590 0.000000
					CHANNELS 3 Zrotation Yrotation Xrotation
					JOINT LeftToeBase
					{
						OFFSET 0.157640 -0.433110 2.322550
						CHANNELS 3 Zrotation Yrotation Xrotation
						End Site
						{
							OFFSET 0.000000 0.000000 0.000000
						}
					}
				}
			}
		}
	}
	JOINT RHipJoint
	{
		OFFSET 0.000000 0.000000 0.000000
		CHANNELS 3 Zrotation Yrotation Xrotation
		JOINT RightUpLeg
		{
			OFFSET -1.305520 -1.794630 0.839290
			CHANNELS 3 Zrotation Yrotation Xrotation
			JOINT RightLeg
			{
				OFFSET -2.542530 -6.985550 0.000000
				CHANNELS 3 Zrotation Yrotation Xrotation
				JOINT RightFoot
				{
					OFFSET -2.568260 -7.056230 0.000000
					CHANNELS 3 Zrotation Yrotation Xrotation
					JOINT RightToeBase
					{
						OFFSET -0.164730 -0.452590 2.363150
						CHANNELS 3 Zrotation Yrotation Xrotation
						End Site
						{
							OFFSET 0.000000 0.000000 0.000000
						}
					}
				}
			}
		}
	}
	JOINT LowerBack
	{
		OFFSET 0.000000 0.000000 0.000000
		CHANNELS 3 Zrotation Yrotation Xrotation
		JOINT Spine
		{
			OFFSET 0.028270 2.035590 -0.193380
			CHANNELS 3 Zrotation Yrotation Xrotation
			JOINT Spine1
			{
				OFFSET 0.056720 2.048850 -0.042750
				CHANNELS 3 Zrotation Yrotation Xrotation
				JOINT Neck
				{
					OFFSET 0.000000 0.000000 0.000000
					CHANNELS 3 Zrotation Yrotation Xrotation
					JOINT Neck1
					{
						OFFSET -0.054170 1.746240 0.172020
						CHANNELS 3 Zrotation Yrotation Xrotation
						JOINT Head
						{
							OFFSET 0.104070 1.761360 -0.123970
							CHANNELS 3 Zrotation Yrotation Xrotation
							End Site
							{
								OFFSET 0.000000 0.000000 0.000000
							}
						}
					}
				}
				JOINT LeftShoulder
				{
					OFFSET 0.000000 0.000000 0.000000
					CHANNELS 3 Zrotation Yrotation Xrotation
					JOINT LeftArm
					{
						OFFSET 3.362410 1.200890 -0.311210
						CHANNELS 3 Zrotation Yrotation Xrotation
						JOINT LeftForeArm
						{
							OFFSET 4.983000 -0.000000 -0.000000
							CHANNELS 3 Zrotation Yrotation Xrotation
							JOINT LeftHand
							{
								OFFSET 3.483560 -0.000000 -0.000000
								CHANNELS 3 Zrotation Yrotation Xrotation
								JOINT LeftFingerBase
								{
									OFFSET 0.000000 0.000000 0.000000
									CHANNELS 3 Zrotation Yrotation Xrotation
									JOINT LeftHandIndex1
									{
										OFFSET 0.715260 -0.000000 -0.000000
										CHANNELS 3 Zrotation Yrotation Xrotation
										End Site
										{
											OFFSET 0.000000 0.000000 0.000000
										}
									}
								}
								JOINT LThumb
								{
									OFFSET 0.000000 0.000000 0.000000
									CHANNELS 3 Zrotation Yrotation Xrotation
									End Site
									{
										OFFSET 0.000000 0.000000 0.000000
									}
								}
							}
						}
					}
				}
				JOINT RightShoulder
				{
					OFFSET 0.000000 0.000000 0.000000
					CHANNELS 3 Zrotation Yrotation Xrotation
					JOINT RightArm
					{
						OFFSET -3.136600 1.374050 -0.404650
						CHANNELS 3 Zrotation Yrotation Xrotation
						JOINT RightForeArm
						{
							OFFSET -5.241900 -0.000000 -0.000000
							CHANNELS 3 Zrotation Yrotation Xrotation
							JOINT RightHand
							{
								OFFSET -3.444170 -0.000000 -0.000000
								CHANNELS 3 Zrotation Yrotation Xrotation
								JOINT RightFingerBase
								{
									OFFSET 0.000000 0.000000 0.000000
									CHANNELS 3 Zrotation Yrotation Xrotation
									JOINT RightHandIndex1
									{
										OFFSET -0.622530 -0.000000 -0.000000
										CHANNELS 3 Zrotation Yrotation Xrotation
										End Site
										{
											OFFSET 0.000000 0.000000 0.000000
										}
									}
								}
								JOINT RThumb
								{
									OFFSET 0.000000 0.000000 0.000000
									CHANNELS 3 Zrotation Yrotation Xrotation
									End Site
									{
										OFFSET 0.000000 0.000000 0.000000
									}
								}
							}
						}
					}
				}
			}
		}
	}
}
MOTION
Frames: 12
Frame Time: 0.033333
-0.297261 17.688084 5.445102 -3.696055 -5.295697 14.285717 -18.702651 6.838929 10.240136 5.222569 3.245784 -11.983879 -2.708046 -3.590493 26.488552 -6.696105 25.759183 23.987091 -0.814165 -0.057964 -40.269413 11.460129 0.651287 0.122979 14.315414 11.306837 -32.404555 2.124714 -0.962817 31.384485 -3.094271 -3.170529 -14.561233 1.023227 -0.073881 -38.514902 5.792303 7.280171 -6.100270 0.681650 -7.998420 -3.127197 -1.946391 -7.277758 4.562766 9.522585 -13.350059 -9.429711 -2.432173 -0.302559 -0.183370 -0.011614 0.078387 0.053053 6.044664 6.182466 -1.972887 -83.514357 -4.324803 32.261734 -5.339622 -67.437132 1.999087 5.167186 -6.131598 -0.414554 -0.366689 0.679208 0.028402 -0.041635 -0.044585 0.012744 -0.038683 0.090219 0.049432 4.697073 -6.774280 -12.961271 71.282419 -13.371908 12.387148 13.853872 73.734745 11.564112 -3.300999 10.445823 -0.379559 0.231581 -0.345003 -0.026095 0.076803 -0.000922 -0.030938 0.050230 0.036644 0.010509 
-0.450602 18.119424 6.238502 -3.016665 -6.446871 13.503508 -19.396679 6.904645 9.919235 4.104535 5.854586 -15.072281 0.490894 -1.895182 27.200499 -4.674313 38.734485 48.215082 0.332597 -0.110051 -41.622444 11.624381 0.792285 -1.180042 14.197636 8.972726 -24.365046 2.415936 0.511126 28.102616 -2.863904 -2.340908 -7.304003 0.712941 -0.074251 -38.909075 2.316826 10.625899 -4.672846 2.139912 -8.005239 -2.725415 -2.336846 -8.959718 4.251588 10.219830 -12.980267 -9.322178 -2.184556 -0.301370 -0.001916 -0.026407 0.074356 0.061077 5.086937 4.766650 -3.381211 -81.664283 5.941345 35.623203 -2.060272 -65.164634 0.255733 4.479087 -5.271477 -0.314716 -0.336272 0.644601 0.025369 -0.055241 -0.025051 0.011238 -0.029957 0.078814 0.050933 3.155369 -4.513228 -14.720200 71.987265 -14.372835 13.560406 17.891002 76.988643 15.317425 -2.459797 9.439696 -0.244957 0.227359 -0.344570 -0.012468 0.093676 0.007817 -0.038909 0.064505 0.024805 0.029887 
-0.637947 18.482445 7.041732 -3.476511 -8.537212 13.356791 -18.789522 5.314746 9.262540 3.566908 3.790855 -15.695819 0.230247 -2.358999 27.842696 8.102812 44.865792 75.028546 1.274801 -0.068331 -43.801525 11.342250 0.686548 -1.469346 14.604130 8.123242 -19.622999 2.962365 1.902164 24.212729 -2.138614 -1.618461 0.388610 0.190638 -0.040205 -39.008020 2.744528 11.961314 -3.955923 2.729461 -7.990947 -3.212039 -1.819556 -8.720268 3.689501 9.567409 -12.602785 -9.146216 -2.252622 -0.299820 0.008393 -0.029854 0.058574 0.067975 3.068122 3.961695 -3.267535 -79.555852 11.760247 36.613597 -0.784652 -64.516893 -0.218632 4.452193 -5.057557 -0.284989 -0.289432 0.585527 0.020459 -0.057955 -0.012480 0.006929 -0.029384 0.081311 0.039344 1.027508 -1.653560 -13.171780 72.389180 -13.203505 12.944712 17.396921 78.310064 15.377767 -2.662454 8.452865 -0.214059 0.167052 -0.304025 0.002927 0.110166 0.008294 -0.048276 0.066397 0.019174 0.038535 
-0.828422 18.707844 7.846184 -2.105465 -11.149563 12.338039 -16.748905 2.077651 7.525892 0.929049 -0.109872 -16.094783 -3.075324 -4.154325 30.082361 9.573693 36.903742 86.729092 2.059834 -0.022005 -45.232851 11.075478 0.646274 -1.916858 13.871510 7.055471 -16.571503 2.261186 2.495528 22.998597 -1.574753 -1.169873 6.131131 -0.114966 -0.023535 -38.074401 1.812712 12.428836 -2.780858 2.972165 -7.400551 -3.142185 -3.235825 -8.588413 3.804498 9.903400 -12.048058 -8.352302 -2.202327 -0.307533 0.299287 -0.031333 0.047939 0.075365 2.189324 3.343410 -3.437198 -78.320374 14.386461 37.103872 0.461499 -64.113230 -0.926129 4.369727 -5.017523 -0.237524 -0.244711 0.513964 0.017433 -0.063176 -0.004028 0.005775 -0.030282 0.081705 0.026545 2.570143 0.478296 -12.444113 71.577983 -11.404435 12.589313 13.723194 79.465621 12.743154 -2.926324 7.652546 -0.190864 0.118295 -0.280061 0.014505 0.122153 0.012150 -0.053678 0.062248 0.012451 0.053078 
-1.009552 18.754430 8.627190 -0.414277 -12.931984 10.335782 -14.448475 0.248423 6.456612 -1.937770 -3.514723 -18.297823 -5.448240 -5.466139 33.094175 3.502176 30.450800 86.997521 2.179959 -0.007618 -44.096402 9.788854 0.106641 -0.492864 13.518456 5.924475 -16.683960 2.758730 3.165166 23.686799 -1.182651 -0.813915 8.029943 -0.172458 -0.004541 -35.565186 -0.076562 9.830805 -1.630231 3.075827 -5.923377 -2.844522 -3.821509 -7.401473 3.103369 9.841942 -11.425363 -8.062080 -2.305984 -0.314810 0.162105 -0.028596 0.037807 0.079552 1.122530 3.482498 -2.476241 -77.802187 16.237749 36.809267 1.086903 -64.436696 -0.674732 5.294706 -5.192244 -0.268714 -0.213570 0.498389 0.010680 -0.063688 -0.007720 0.003552 -0.041526 0.085523 0.018889 3.707700 2.573773 -11.448212 71.168308 -9.028460 10.503561 9.128578 80.606890 8.142299 -3.850231 7.160549 -0.231922 0.123911 -0.303118 0.013091 0.128016 0.011549 -0.055238 0.042990 0.017131 0.058491 
-1.201800 18.595439 9.376461 1.147704 -11.026413 9.154466 -14.005995 2.207390 2.935124 -4.568181 -2.266450 -22.650572 -0.127517 1.047650 38.201581 -0.395607 21.793246 54.817703 2.020071 0.002108 -41.434620 10.202500 -0.669037 0.076867 10.937981 5.460473 -19.106971 3.109852 2.420807 27.222031 -1.156958 -1.078534 7.819160 -0.169596 0.032922 -31.511751 0.222747 7.506456 -0.579780 1.684102 -4.499395 -3.060788 -4.591293 -7.232434 3.088450 9.545865 -10.566308 -7.606171 -2.489157 -0.333468 0.251519 -0.022921 0.029385 0.085541 0.424541 3.171290 -1.775749 -78.230825 15.523177 35.761203 1.552933 -64.897754 -1.268093 6.335076 -5.524125 -0.312301 -0.170138 0.397770 0.009568 -0.062557 -0.012071 0.003286 -0.056930 0.091208 0.017198 4.274299 2.044817 -10.041412 71.368683 -5.524340 9.556967 2.027871 81.853718 1.807775 -5.129938 6.887742 -0.307338 0.078057 -0.350605 0.015849 0.126276 0.011941 -0.052191 0.019572 0.018895 0.063232 
-1.414283 18.227517 10.099840 2.785445 -10.680797 7.569373 -14.083696 2.254806 3.183583 -4.915647 -2.926520 -28.840644 0.743783 2.719000 45.495924 -0.207672 7.748864 11.513295 1.493235 -0.005413 -37.248885 10.268835 -0.337618 0.355842 9.476508 3.974294 -21.598342 4.153203 2.097415 33.720808 -1.133670 -1.926817 5.070618 -0.188874 0.093983 -26.807452 -1.344337 4.209264 1.153929 1.664471 -3.072450 -2.239532 -5.531954 -5.218905 2.245030 10.317078 -9.415231 -7.136620 -2.538165 -0.350038 0.326051 -0.017277 0.034463 0.084093 0.314324 3.413979 -1.183375 -79.860179 14.339723 32.829537 1.002098 -62.099219 -0.451205 8.377195 -5.634611 -0.414180 -0.174799 0.374496 0.001021 -0.068078 -0.025111 0.006849 -0.066898 0.093347 0.019261 5.852990 1.816693 -9.149663 71.435648 -1.805078 7.500860 1.569015 82.802595 0.933513 -6.546192 7.321076 -0.409108 0.133753 -0.421207 0.006317 0.113792 0.016638 -0.046582 0.004956 0.019573 0.065315 
-1.609642 17.727183 10.777756 4.424316 -10.798868 5.316108 -14.193929 3.015505 4.505651 -5.785066 -4.360887 -35.624337 2.516015 3.682019 54.178013 1.221375 3.807242 -6.929651 0.995367 -0.003623 -32.861684 10.093604 0.241318 1.454899 7.751675 2.825524 -22.734501 6.171113 1.774620 39.554189 -1.101302 -1.104544 2.354888 -0.107686 0.156685 -22.514229 -2.266187 3.685666 4.088617 0.735926 -1.934375 -2.421554 -5.334601 -4.297902 1.385099 10.439584 -8.096472 -7.583047 -2.635324 -0.350406 0.107888 -0.015808 0.039065 0.084363 -0.813943 4.488569 -0.628675 -81.310287 13.876184 29.128243 0.180955 -60.084806 -0.144170 10.397309 -5.658301 -0.518751 -0.145619 0.324254 0.000082 -0.077222 -0.027856 0.011670 -0.077714 0.103590 0.025238 6.318698 2.147970 -8.263324 72.167126 1.703148 6.151944 -5.036949 82.680938 -5.276873 -8.214743 7.787083 -0.558514 0.104948 -0.446909 0.000104 0.103119 0.020798 -0.039156 -0.011018 0.017729 0.068187 
-1.737138 17.250642 11.378956 5.197370 -11.016141 4.802526 -14.090481 2.782243 4.972610 -5.319992 -5.709956 -41.437890 2.116109 2.383575 63.334914 1.566553 3.795421 -10.775038 0.427747 0.049754 -29.289371 10.338709 0.333310 2.260112 6.987019 1.687306 -22.662760 6.677576 0.979006 41.740284 -1.578641 1.023855 -6.180779 0.004501 0.165461 -20.705053 -3.919205 2.694461 4.578951 0.704783 -1.370584 -1.859762 -5.875321 -2.566448 1.243665 10.786177 -6.529670 -6.694941 -2.600005 -0.363729 0.338517 -0.016070 0.039721 0.079505 -1.079626 5.742220 -0.875857 -82.057809 12.808331 25.596074 0.724693 -58.311968 -0.706727 12.479119 -5.372711 -0.594782 -0.088538 0.366163 -0.001412 -0.087061 -0.030289 0.003531 -0.079853 0.109208 0.032985 8.471859 2.882204 -6.885157 71.941691 7.560971 4.758228 -3.493821 81.262951 -3.572269 -9.403142 8.612992 -0.707502 0.148525 -0.480409 -0.010404 0.087712 0.022221 -0.029124 -0.016382 0.013149 0.068538 
-1.794397 16.927119 11.920910 4.996579 -11.373359 4.993677 -13.189405 3.366483 5.135853 -6.007058 -7.368364 -45.311275 3.270814 0.168491 67.028981 1.681576 3.777137 -13.338191 0.060938 0.108032 -27.009770 9.548675 0.361671 3.449564 8.181488 1.129951 -22.443244 6.542324 0.872931 43.001197 -2.432661 4.043590 -13.733764 0.189462 0.170476 -21.021159 -3.869242 3.368310 4.701850 0.812563 -1.419467 -1.945837 -5.795759 -1.402894 0.231207 9.969864 -4.994643 -7.073099 -2.821832 -0.368930 0.102441 -0.017666 0.038474 0.075220 -2.347346 7.760608 -0.839008 -81.562776 11.692666 22.584805 0.647300 -57.417732 -1.262929 14.234225 -5.049671 -0.638518 -0.099996 0.287084 -0.002281 -0.091697 -0.031070 -0.001285 -0.080277 0.109613 0.032506 7.004587 4.007935 -6.159100 72.179040 12.981704 3.570922 -1.549395 79.741827 -1.776023 -10.316097 9.259328 -0.842151 0.131743 -0.435136 -0.018911 0.078444 0.022437 -0.022188 -0.019061 0.010055 0.070611 
-1.838523 16.769108 12.465272 4.884262 -10.952029 5.604746 -12.635690 3.469380 5.340299 -6.368390 -8.312272 -46.822604 1.367243 -2.971623 63.263400 1.694979 3.693051 -11.292426 -0.222858 0.138139 -27.118670 9.348819 -0.271862 4.479887 8.540365 1.611253 -20.263630 5.518532 0.804962 39.896279 -2.684381 6.557762 -19.311097 0.317025 0.168865 -24.391063 -3.771947 4.646107 3.700963 0.189039 -2.049975 -2.464544 -5.303911 -0.695650 0.944153 8.886417 -4.288568 -6.843824 -2.734595 -0.367442 0.188555 -0.019849 0.029277 0.071849 -3.393969 9.574225 -0.531859 -79.486370 11.220157 19.746723 -0.910337 -59.029943 -0.396048 14.393771 -4.600382 -0.579689 -0.095870 0.275947 -0.002882 -0.093932 -0.011405 -0.018213 -0.074564 0.107481 0.029342 5.165853 5.637412 -5.678963 72.537522 17.415930 2.329090 1.281345 78.033715 0.947904 -10.474567 9.800815 -0.908368 0.143668 -0.481688 -0.022836 0.070313 0.015800 -0.021360 -0.025304 0.011654 0.075907 
-1.915033 16.733306 13.051054 3.853395 -10.348746 7.132928 -11.746883 3.265199 6.008341 -6.712805 -9.742909 -47.388900 0.139355 -8.585379 54.278114 1.551003 2.961939 -7.509870 -0.427846 0.191662 -28.511121 10.098313 -0.562667 5.153144 8.943875 1.259511 -17.714453 4.309389 0.854200 34.696400 -1.976934 9.138007 -21.466941 0.314953 0.194616 -28.920039 -2.715747 4.433905 2.339787 -0.270510 -1.173053 -2.444453 -6.039661 0.234728 1.257560 8.413813 -3.602992 -7.042416 -2.590462 -0.370528 0.115382 -0.019567 0.022640 0.064853 -3.192504 11.654568 -0.408028 -76.491240 11.077596 17.842637 -0.004530 -60.998893 -1.602184 14.810759 -4.366009 -0.549553 0.026664 0.186302 -0.007799 -0.094375 0.000325 -0.028025 -0.061575 0.094064 0.018006 5.432152 4.958113 -3.787513 71.893819 23.997496 2.280978 3.242123 76.779478 3.008267 -10.205915 10.271769 -0.924892 0.131057 -0.492880 -0.028095 0.070986 0.008235 -0.025141 -0.025484 0.013869 0.073663 
